<?xml version="1.0" encoding="utf-8"?>
<svg id="Layer_1" x="0px" y="0px" viewBox="0 0 412.979 421.594" xmlns="http://www.w3.org/2000/svg">
  <g>
    <ellipse style="stroke: rgb(0, 0, 0);" cx="139.469" cy="144.617" rx="131.626" ry="136.773"/>
    <polyline style="stroke: rgba(97, 66, 60, 0);" points="104.418 273.546 116.183 323.059 137.263 356.394 155.402 374.532 205.405 404.926 258.349 415.711 305.901 408.848 346.099 387.768 379.925 357.865 400.514 324.039 402.475 311.783 379.925 304.92 372.081 288.743 371.101 275.997 377.964 266.193 392.671 257.368 384.337 245.603 375.023 235.308 380.905 219.131 384.827 207.856 364.238 199.522 346.59 168.147 358.845 143.636 345.119 124.027 282.86 103.928 256.388 103.928 230.896 105.399 206.385 110.791 188.737 116.183 164.226 134.322 148.048 147.558 135.792 160.794 112.752 200.012"/>
    <path fill="none" stroke="#000000" stroke-width="12" stroke-linecap="round" stroke-linejoin="round" stroke-miterlimit="10" d="  M406.758,310.551l-10.441-0.562c-3.117-0.168-5.785-0.724-8.16-1.685c-6.348-2.559-11.313-7.43-13.992-13.711  c-2.676-6.289-2.75-13.25-0.188-19.59c2.406-5.969,7.012-10.793,12.965-13.558l12.477-5.802l-11.789-7.094  c-9.668-5.82-13.645-17.601-9.449-28.027c0.82-2.043,2.094-4.066,3.875-6.164l8.586-10.121l-13.141-1.86  c-2.883-0.41-5.469-1.082-7.926-2.078c-17.297-6.969-25.707-26.703-18.742-44.008c1.488-3.715,3.66-7.144,6.457-10.195l5.285-5.77  l-6.113-4.882 M268.91,101.395C250.797,44.993,199.008,6,140.957,6C66.543,6,6,68.328,6,144.946  c0,61.523,39.363,115.336,96.281,132.851 M128.395,169.953c-0.118,0.176-0.247,0.344-0.372,0.528  c-0.382,0.554-0.796,1.082-1.164,1.644c-1.742,2.664-3.304,5.45-4.89,8.227c-0.25,0.433-0.52,0.851-0.762,1.281  c-0.242,0.426-0.512,0.832-0.746,1.258c-0.527,0.957-1.063,1.902-1.566,2.867c-0.254,0.496-0.571,0.949-0.825,1.449  c-0.929,1.828-1.64,3.715-2.488,5.563c-0.184,0.394-0.379,0.777-0.555,1.18c-0.316,0.687-0.703,1.351-1,2.039  c-0.687,0.093-1.339,0.144-1.976,0.144c-10.078,0-18.281-8.195-18.281-18.281c0-10.086,8.203-18.281,18.281-18.281  c7.019,0,13.359,4.132,16.367,10.371C128.395,169.942,128.395,169.946,128.395,169.953z"/>
    <path fill="none" stroke="#000000" stroke-width="12" stroke-linecap="round" stroke-linejoin="round" stroke-miterlimit="10" d="  M265.129,204.368c-2.207,4.359-5.973,7.593-10.617,9.113c-4.645,1.513-9.594,1.134-13.953-1.066  c-8.989-4.558-12.59-15.586-8.036-24.574c3.22-6.347,9.661-10.012,16.336-10.012c2.774,0,5.595,0.637,8.235,1.977  c4.359,2.215,7.59,5.98,9.113,10.625C267.719,195.067,267.34,200.012,265.129,204.368z"/>
    <path fill="none" stroke="#000000" stroke-width="12" stroke-linecap="round" stroke-linejoin="round" stroke-miterlimit="10" d="  M82.781,75.473c10.078,0,18.285,8.195,18.285,18.281c0,10.082-8.207,18.281-18.285,18.281c-10.075,0-18.282-8.199-18.282-18.281  C64.499,83.668,72.706,75.473,82.781,75.473z"/>
    <path fill="none" stroke="#000000" stroke-width="12" stroke-linecap="round" stroke-linejoin="round" stroke-miterlimit="10" d="  M170.281,49.663c10.078,0,18.285,8.195,18.285,18.281c0,10.082-8.207,18.281-18.285,18.281c-10.075,0-18.282-8.199-18.282-18.281  C151.999,57.858,160.206,49.663,170.281,49.663z"/>
    <path fill="none" stroke="#000000" stroke-width="12" stroke-linecap="round" stroke-linejoin="round" stroke-miterlimit="10" d="  M218.84,295.684c-4.555,8.988-15.574,12.586-24.57,8.043c-4.36-2.215-7.59-5.98-9.114-10.625c-1.519-4.645-1.14-9.594,1.071-13.944  c2.207-4.36,5.972-7.591,10.617-9.11c1.871-0.609,3.797-0.914,5.703-0.914c2.84,0,5.644,0.672,8.25,1.98  C219.793,275.668,223.395,286.695,218.84,295.684z"/>
    <path fill="none" stroke="#000000" stroke-width="12" stroke-linecap="round" stroke-linejoin="round" stroke-miterlimit="10" d="  M313.555,319.102c-4.563,8.984-15.574,12.59-24.57,8.043c-4.359-2.215-7.589-5.984-9.109-10.625  c-1.522-4.645-1.141-9.598,1.066-13.944c2.207-4.36,5.973-7.595,10.618-9.114c1.87-0.605,3.796-0.914,5.702-0.914  c2.841,0,5.648,0.672,8.25,1.98C314.508,299.09,318.121,310.113,313.555,319.102z"/>
    <path fill="none" stroke="#000000" stroke-width="12" stroke-linecap="round" stroke-linejoin="round" stroke-miterlimit="10" d="  M406.979,310.629C385.369,371.78,327.051,415.594,258.5,415.594c-86.948,0-157.434-70.485-157.434-157.435  c0-86.948,70.486-157.434,157.434-157.434c39.969,0,76.458,14.894,104.222,39.435"/>
  </g>
</svg>