<?xml version="1.0" encoding="utf-8"?>
<svg version="1.1" x="0px" y="0px" viewBox="0 0 1000 1000" enable-background="new 0 0 1000 1000"
    xmlns="http://www.w3.org/2000/svg">
    <g>
        <path stroke="#000000" d="M 367.3 665.4 L 807.8 665.4 C 819.6 665.4 829.4 658.5 833.3 647.7 L 988.3 236.6 C 991.2 227.8 990.3 218.9 985.4 211.1 C 980.5 203.3 971.7 199.3 962.8 199.3 L 708.7 198.3 C 705.8 197.3 702.637 198.463 699.737 198.463 C 696.837 198.463 694.837 197.3 691.937 198.3 L 232.9 195.4 L 197.6 100.2 C 194.7 93.3 189.8 87.4 181.9 84.5 L 47.5 30.5 C 33.8 24.6 17.1 31.5 12.2 46.2 C 6.3 59.9 13.2 76.6 27.9 81.5 L 151.5 130.6 L 188.8 231.7 C 188.8 231.7 188.8 232.7 189.8 232.7 L 325.2 596.7 L 265.4 756.6 C 262.5 765.4 263.4 774.3 268.3 782.1 C 273.2 789.9 282 793.9 290.9 793.9 L 307.6 793.9 C 288 812.5 275.2 839 275.2 868.5 C 275.2 925.4 321.3 971.5 378.2 971.5 C 435.1 971.5 481.2 925.4 481.2 868.5 C 481.2 839.1 468.4 812.6 448.8 793.9 L 665.6 793.9 C 646 812.5 633.2 839 633.2 868.5 C 633.2 925.4 679.3 971.5 736.2 971.5 C 793.1 971.5 839.2 925.4 839.2 868.5 C 839.2 839.1 826.4 812.6 806.8 793.9 L 835.3 793.9 C 850 793.9 862.8 781.1 862.8 766.4 C 862.8 751.7 850 738.9 835.3 738.9 L 332 738.9 L 360.5 663.4 C 360.4 664.4 363.4 665.4 367.3 665.4 Z M 375.1 914.6 C 348.6 914.6 327 893 327 866.5 C 327 840 348.6 818.4 375.1 818.4 C 401.6 818.4 423.2 840 423.2 866.5 C 423.2 893 401.6 914.6 375.1 914.6 Z M 732.3 914.6 C 705.8 914.6 684.2 893 684.2 866.5 C 684.2 840 705.8 818.4 732.3 818.4 C 758.8 818.4 780.4 840 780.4 866.5 C 780.3 893 758.8 914.6 732.3 914.6 Z M 673.4 384.8 L 673.4 475.1 L 512.5 475.1 L 512.5 384.8 L 673.4 384.8 Z M 512.5 329.8 L 512.5 251.3 L 673.4 252.3 L 673.4 329.8 L 512.5 329.8 Z M 839.2 474.1 L 727.4 474.1 L 727.4 383.8 L 872.6 383.8 L 839.2 474.1 Z M 673.4 529 L 673.4 609.5 L 512.5 609.5 L 512.5 529 L 673.4 529 Z M 457.5 474.1 L 336.9 474.1 L 303.5 383.8 L 457.5 383.8 L 457.5 474.1 Z M 356.5 529 L 457.6 529 L 457.6 609.5 L 387 609.5 L 356.5 529 Z M 789.2 610.4 L 728.4 610.4 L 728.4 530 L 819.6 530 L 789.2 610.4 Z M 894.2 329.8 L 728.3 329.8 L 728.3 252.3 L 922.6 253.3 L 894.2 329.8 Z M 457.5 250.4 L 457.5 328.9 L 282.9 328.9 L 253.5 248.4 L 457.5 250.4 Z" style="stroke-linecap: round; stroke-linejoin: round;  stroke-width: 12px;"/>
    </g>
</svg>