<?xml version="1.0" encoding="UTF-8"?>
<svg width="700pt" height="700pt" version="1.1" viewBox="0 0 700 700" xmlns="http://www.w3.org/2000/svg" xmlns:xlink="http://www.w3.org/1999/xlink">
 <defs>
  <symbol id="v" overflow="visible">
   <path d="m14.094-0.84375c-0.71875 0.375-1.4766 0.65625-2.2656 0.84375-0.79297 0.19531-1.6172 0.29688-2.4688 0.29688-2.5547 0-4.5781-0.71094-6.0781-2.1406-1.4922-1.4258-2.2344-3.3633-2.2344-5.8125 0-2.4453 0.74219-4.3828 2.2344-5.8125 1.5-1.4375 3.5234-2.1562 6.0781-2.1562 0.85156 0 1.6758 0.10156 2.4688 0.29688 0.78906 0.1875 1.5469 0.46875 2.2656 0.84375v3.1875c-0.73047-0.5-1.4531-0.86328-2.1719-1.0938-0.71094-0.23828-1.4531-0.35938-2.2344-0.35938-1.418 0-2.5312 0.45312-3.3438 1.3594-0.80469 0.89844-1.2031 2.1406-1.2031 3.7344 0 1.5859 0.39844 2.8281 1.2031 3.7344 0.8125 0.90625 1.9258 1.3594 3.3438 1.3594 0.78125 0 1.5234-0.11328 2.2344-0.34375 0.71875-0.23828 1.4414-0.60938 2.1719-1.1094z"/>
  </symbol>
  <symbol id="b" overflow="visible">
   <path d="m10.312-8.375c-0.32422-0.15625-0.64844-0.26562-0.96875-0.32812-0.3125-0.070313-0.63281-0.10938-0.95312-0.10938-0.9375 0-1.6641 0.30469-2.1719 0.90625-0.51172 0.60547-0.76562 1.4766-0.76562 2.6094v5.2969h-3.6875v-11.516h3.6875v1.8906c0.46875-0.75 1.0078-1.2969 1.625-1.6406 0.61328-0.34375 1.3477-0.51562 2.2031-0.51562 0.125 0 0.25391 0.007812 0.39062 0.015625 0.14453 0.011719 0.35938 0.03125 0.64062 0.0625z"/>
  </symbol>
  <symbol id="a" overflow="visible">
   <path d="m13.25-5.7812v1.0469h-8.5938c0.082031 0.86719 0.39062 1.5156 0.92188 1.9531 0.53906 0.42969 1.2891 0.64062 2.25 0.64062 0.78125 0 1.5703-0.11328 2.375-0.34375 0.8125-0.23828 1.6484-0.58594 2.5156-1.0469v2.8281c-0.875 0.33594-1.75 0.58594-2.625 0.75-0.86719 0.16406-1.7344 0.25-2.6094 0.25-2.0742 0-3.6875-0.52344-4.8438-1.5781-1.1562-1.0625-1.7344-2.5508-1.7344-4.4688 0-1.875 0.56641-3.3477 1.7031-4.4219 1.1328-1.0703 2.6914-1.6094 4.6719-1.6094 1.8125 0 3.2578 0.54688 4.3438 1.6406 1.082 1.0859 1.625 2.5391 1.625 4.3594zm-3.7812-1.2344c0-0.69531-0.20312-1.2578-0.60938-1.6875-0.40625-0.42578-0.9375-0.64062-1.5938-0.64062-0.71094 0-1.2891 0.20312-1.7344 0.60938-0.44922 0.39844-0.72656 0.96875-0.82812 1.7188z"/>
  </symbol>
  <symbol id="g" overflow="visible">
   <path d="m6.9219-5.1719c-0.76172 0-1.3398 0.13281-1.7344 0.39062-0.38672 0.25-0.57812 0.63281-0.57812 1.1406 0 0.46875 0.15625 0.83984 0.46875 1.1094 0.3125 0.26172 0.74219 0.39062 1.2969 0.39062 0.69531 0 1.2812-0.25 1.75-0.75 0.47656-0.5 0.71875-1.125 0.71875-1.875v-0.40625zm5.625-1.3906v6.5625h-3.7031v-1.7031c-0.5 0.69922-1.0586 1.2109-1.6719 1.5312-0.61719 0.3125-1.3672 0.46875-2.25 0.46875-1.1875 0-2.1562-0.34375-2.9062-1.0312-0.74219-0.69531-1.1094-1.6016-1.1094-2.7188 0-1.3516 0.46094-2.3438 1.3906-2.9688 0.92578-0.63281 2.3828-0.95312 4.375-0.95312h2.1719v-0.28125c0-0.58203-0.23047-1.0078-0.6875-1.2812-0.46094-0.26953-1.1797-0.40625-2.1562-0.40625-0.79297 0-1.5273 0.078125-2.2031 0.23438-0.67969 0.15625-1.3086 0.39844-1.8906 0.71875v-2.8125c0.78906-0.1875 1.582-0.32812 2.375-0.42188 0.80078-0.10156 1.5977-0.15625 2.3906-0.15625 2.0703 0 3.5664 0.41406 4.4844 1.2344 0.92578 0.8125 1.3906 2.1406 1.3906 3.9844z"/>
  </symbol>
  <symbol id="c" overflow="visible">
   <path d="m5.7812-14.781v3.2656h3.7969v2.6406h-3.7969v4.875c0 0.53125 0.10156 0.89844 0.3125 1.0938 0.21875 0.1875 0.64453 0.28125 1.2812 0.28125h1.8906v2.625h-3.1562c-1.4609 0-2.4922-0.30078-3.0938-0.90625-0.60547-0.60156-0.90625-1.6328-0.90625-3.0938v-4.875h-1.8281v-2.6406h1.8281v-3.2656z"/>
  </symbol>
  <symbol id="j" overflow="visible">
   <path d="m9.5938-9.8281v-6.1562h3.7031v15.984h-3.7031v-1.6719c-0.5 0.6875-1.0586 1.1875-1.6719 1.5-0.60547 0.3125-1.3086 0.46875-2.1094 0.46875-1.4297 0-2.5938-0.5625-3.5-1.6875s-1.3594-2.5781-1.3594-4.3594c0-1.7695 0.45312-3.2188 1.3594-4.3438s2.0703-1.6875 3.5-1.6875c0.78906 0 1.4922 0.16406 2.1094 0.48438 0.61328 0.3125 1.1719 0.80469 1.6719 1.4688zm-2.4219 7.4531c0.78906 0 1.3906-0.28516 1.7969-0.85938 0.41406-0.57031 0.625-1.4102 0.625-2.5156 0-1.0938-0.21094-1.9258-0.625-2.5-0.40625-0.57031-1.0078-0.85938-1.7969-0.85938-0.78125 0-1.3828 0.28906-1.7969 0.85938-0.40625 0.57422-0.60938 1.4062-0.60938 2.5 0 1.1055 0.20312 1.9453 0.60938 2.5156 0.41406 0.57422 1.0156 0.85938 1.7969 0.85938z"/>
  </symbol>
  <symbol id="i" overflow="visible">
   <path d="m7.8906-2.375c0.78906 0 1.3906-0.28516 1.7969-0.85938 0.41406-0.57031 0.625-1.4102 0.625-2.5156 0-1.0938-0.21094-1.9258-0.625-2.5-0.40625-0.57031-1.0078-0.85938-1.7969-0.85938-0.79297 0-1.3984 0.29297-1.8125 0.875-0.41797 0.57422-0.625 1.4023-0.625 2.4844 0 1.0938 0.20703 1.9336 0.625 2.5156 0.41406 0.57422 1.0195 0.85938 1.8125 0.85938zm-2.4375-7.4531c0.5-0.66406 1.0547-1.1562 1.6719-1.4688 0.625-0.32031 1.3359-0.48438 2.1406-0.48438 1.4141 0 2.5781 0.5625 3.4844 1.6875 0.91406 1.125 1.375 2.5742 1.375 4.3438 0 1.7812-0.46094 3.2344-1.375 4.3594-0.90625 1.125-2.0703 1.6875-3.4844 1.6875-0.80469 0-1.5156-0.15625-2.1406-0.46875-0.61719-0.32031-1.1719-0.82031-1.6719-1.5v1.6719h-3.6875v-15.984h3.6875z"/>
  </symbol>
  <symbol id="f" overflow="visible">
   <path d="m0.25-11.516h3.6875l3.0938 7.8125 2.625-7.8125h3.6875l-4.8438 12.609c-0.49219 1.2812-1.0586 2.1758-1.7031 2.6875-0.64844 0.50781-1.5 0.76562-2.5625 0.76562h-2.125v-2.4219h1.1406c0.625 0 1.0781-0.10156 1.3594-0.29688 0.28906-0.19922 0.51562-0.55469 0.67188-1.0625l0.10938-0.32812z"/>
  </symbol>
  <symbol id="h" overflow="visible">
   <path d="m8.0781-9.4062c0.625 0 1.0977-0.13281 1.4219-0.40625 0.32031-0.26953 0.48438-0.67578 0.48438-1.2188 0-0.51953-0.16406-0.92188-0.48438-1.2031-0.32422-0.28125-0.79688-0.42188-1.4219-0.42188h-2.1875v3.25zm0.14062 6.7188c0.78906 0 1.3828-0.16406 1.7812-0.5 0.40625-0.34375 0.60938-0.85156 0.60938-1.5312 0-0.66406-0.20312-1.1602-0.60938-1.4844-0.39844-0.33203-0.99219-0.5-1.7812-0.5h-2.3281v4.0156zm3.6719-5.5312c0.85156 0.25 1.5078 0.71094 1.9688 1.375 0.46875 0.66797 0.70312 1.4805 0.70312 2.4375 0 1.4922-0.5 2.6016-1.5 3.3281-1 0.71875-2.5234 1.0781-4.5625 1.0781h-6.5625v-15.344h5.9375c2.125 0 3.6641 0.32422 4.625 0.96875 0.95703 0.64844 1.4375 1.6797 1.4375 3.0938 0 0.75-0.17969 1.3867-0.53125 1.9062-0.34375 0.52344-0.85156 0.90625-1.5156 1.1562z"/>
  </symbol>
  <symbol id="u" overflow="visible">
   <path d="m1.7656-11.516h3.6875v11.516h-3.6875zm0-4.4688h3.6875v3h-3.6875z"/>
  </symbol>
  <symbol id="e" overflow="visible">
   <path d="m11.062-11.156v3c-0.5-0.33203-1-0.58203-1.5-0.75-0.5-0.16406-1.0234-0.25-1.5625-0.25-1.0312 0-1.8359 0.30469-2.4062 0.90625-0.57422 0.59375-0.85938 1.4297-0.85938 2.5 0 1.0859 0.28516 1.9297 0.85938 2.5312 0.57031 0.59375 1.375 0.89062 2.4062 0.89062 0.57031 0 1.1133-0.082031 1.625-0.25 0.51953-0.17578 1-0.42969 1.4375-0.76562v3c-0.57422 0.21875-1.1562 0.37891-1.75 0.48438-0.59375 0.10156-1.1875 0.15625-1.7812 0.15625-2.0742 0-3.6992-0.53125-4.875-1.5938-1.168-1.0625-1.75-2.5469-1.75-4.4531 0-1.8945 0.58203-3.375 1.75-4.4375 1.1758-1.0625 2.8008-1.5938 4.875-1.5938 0.60156 0 1.1953 0.054688 1.7812 0.15625 0.58203 0.10547 1.1641 0.26172 1.75 0.46875z"/>
  </symbol>
  <symbol id="t" overflow="visible">
   <path d="m1.7656-15.984h3.6875v8.7031l4.2344-4.2344h4.2656l-5.625 5.2812 6.0625 6.2344h-4.4531l-4.4844-4.7969v4.7969h-3.6875z"/>
  </symbol>
  <symbol id="s" overflow="visible">
   <path d="m1.7656-15.984h3.6875v15.984h-3.6875z"/>
  </symbol>
  <symbol id="r" overflow="visible">
   <path d="m9.3438-15.984v2.4062h-2.0312c-0.52344 0-0.88672 0.09375-1.0938 0.28125-0.21094 0.1875-0.3125 0.51562-0.3125 0.98438v0.79688h3.1406v2.6406h-3.1406v8.875h-3.6719v-8.875h-1.8281v-2.6406h1.8281v-0.79688c0-1.25 0.34766-2.1719 1.0469-2.7656 0.69531-0.60156 1.7812-0.90625 3.25-0.90625z"/>
  </symbol>
  <symbol id="d" overflow="visible">
   <path d="m7.25-9.1562c-0.82422 0-1.4492 0.29297-1.875 0.875-0.42969 0.58594-0.64062 1.4297-0.64062 2.5312 0 1.1055 0.21094 1.9531 0.64062 2.5469 0.42578 0.58594 1.0508 0.875 1.875 0.875 0.80078 0 1.4102-0.28906 1.8281-0.875 0.42578-0.59375 0.64062-1.4414 0.64062-2.5469 0-1.1016-0.21484-1.9453-0.64062-2.5312-0.41797-0.58203-1.0273-0.875-1.8281-0.875zm0-2.625c1.9766 0 3.5234 0.53906 4.6406 1.6094 1.1133 1.0625 1.6719 2.5391 1.6719 4.4219 0 1.8984-0.55859 3.3828-1.6719 4.4531-1.1172 1.0625-2.6641 1.5938-4.6406 1.5938-1.9922 0-3.5469-0.53125-4.6719-1.5938-1.1172-1.0703-1.6719-2.5547-1.6719-4.4531 0-1.8828 0.55469-3.3594 1.6719-4.4219 1.125-1.0703 2.6797-1.6094 4.6719-1.6094z"/>
  </symbol>
  <symbol id="q" overflow="visible">
   <path d="m12.438-9.5938c0.46875-0.71875 1.0195-1.2578 1.6562-1.625 0.64453-0.375 1.3477-0.5625 2.1094-0.5625 1.3203 0 2.3281 0.40625 3.0156 1.2188 0.69531 0.8125 1.0469 1.9961 1.0469 3.5469v7.0156h-3.7031v-6c0.007812-0.09375 0.015625-0.1875 0.015625-0.28125 0.007813-0.09375 0.015625-0.22656 0.015625-0.40625 0-0.8125-0.12109-1.3984-0.35938-1.7656-0.24219-0.375-0.63281-0.5625-1.1719-0.5625-0.69922 0-1.2422 0.29297-1.625 0.875-0.375 0.57422-0.57031 1.4023-0.57812 2.4844v5.6562h-3.7031v-6c0-1.2695-0.10938-2.0859-0.32812-2.4531-0.21875-0.375-0.60938-0.5625-1.1719-0.5625-0.71094 0-1.2578 0.29297-1.6406 0.875-0.375 0.57422-0.5625 1.4023-0.5625 2.4844v5.6562h-3.7031v-11.516h3.7031v1.6875c0.44531-0.64453 0.96094-1.1289 1.5469-1.4531 0.58203-0.33203 1.2266-0.5 1.9375-0.5 0.80078 0 1.5039 0.19531 2.1094 0.57812 0.61328 0.375 1.0781 0.91406 1.3906 1.6094z"/>
  </symbol>
  <symbol id="p" overflow="visible">
   <path d="m13.344-7.0156v7.0156h-3.7031v-5.3438c0-1.0078-0.027344-1.7031-0.078125-2.0781-0.042969-0.375-0.11719-0.64844-0.21875-0.82812-0.14844-0.23828-0.34375-0.42578-0.59375-0.5625-0.24219-0.13281-0.52344-0.20312-0.84375-0.20312-0.76172 0-1.3594 0.29688-1.7969 0.89062s-0.65625 1.418-0.65625 2.4688v5.6562h-3.6875v-15.984h3.6875v6.1562c0.55078-0.66406 1.1406-1.1562 1.7656-1.4688 0.625-0.32031 1.3125-0.48438 2.0625-0.48438 1.332 0 2.3438 0.40625 3.0312 1.2188s1.0312 1.9961 1.0312 3.5469z"/>
  </symbol>
  <symbol id="o" overflow="visible">
   <path d="m1.9375-15.344h4.4062l5.5938 10.531v-10.531h3.75v15.344h-4.4219l-5.5781-10.531v10.531h-3.75z"/>
  </symbol>
  <symbol id="n" overflow="visible">
   <path d="m1.6406-4.4844v-7.0312h3.7031v1.1562c0 0.625-0.007812 1.4141-0.015625 2.3594v1.875c0 0.92969 0.019531 1.5938 0.0625 2 0.050781 0.40625 0.13281 0.70312 0.25 0.89062 0.15625 0.24219 0.35156 0.42969 0.59375 0.5625 0.23828 0.125 0.51953 0.1875 0.84375 0.1875 0.75781 0 1.3594-0.28906 1.7969-0.875 0.4375-0.59375 0.65625-1.4141 0.65625-2.4688v-5.6875h3.6875v11.516h-3.6875v-1.6719c-0.55469 0.67969-1.1406 1.1797-1.7656 1.5-0.61719 0.3125-1.2969 0.46875-2.0469 0.46875-1.3242 0-2.3359-0.40625-3.0312-1.2188-0.69922-0.8125-1.0469-2-1.0469-3.5625z"/>
  </symbol>
  <symbol id="m" overflow="visible">
   <path d="m13.344-7.0156v7.0156h-3.7031v-5.3594c0-1-0.027344-1.6875-0.078125-2.0625-0.042969-0.375-0.11719-0.64844-0.21875-0.82812-0.14844-0.23828-0.34375-0.42578-0.59375-0.5625-0.24219-0.13281-0.52344-0.20312-0.84375-0.20312-0.76172 0-1.3594 0.29688-1.7969 0.89062s-0.65625 1.418-0.65625 2.4688v5.6562h-3.6875v-11.516h3.6875v1.6875c0.55078-0.66406 1.1406-1.1562 1.7656-1.4688 0.625-0.32031 1.3125-0.48438 2.0625-0.48438 1.332 0 2.3438 0.40625 3.0312 1.2188s1.0312 1.9961 1.0312 3.5469z"/>
  </symbol>
  <symbol id="l" overflow="visible">
   <path d="m1.9375-15.344h6.5625c1.9453 0 3.4414 0.43359 4.4844 1.2969 1.0508 0.86719 1.5781 2.1016 1.5781 3.7031 0 1.6172-0.52734 2.8555-1.5781 3.7188-1.043 0.86719-2.5391 1.2969-4.4844 1.2969h-2.6094v5.3281h-3.9531zm3.9531 2.875v4.2812h2.1875c0.76953 0 1.3633-0.1875 1.7812-0.5625 0.41406-0.375 0.625-0.90625 0.625-1.5938 0-0.67578-0.21094-1.1953-0.625-1.5625-0.41797-0.375-1.0117-0.5625-1.7812-0.5625z"/>
  </symbol>
  <symbol id="k" overflow="visible">
   <path d="m1.7656-11.516h3.6875v11.312c0 1.5391-0.37109 2.7188-1.1094 3.5312-0.74219 0.8125-1.8125 1.2188-3.2188 1.2188h-1.8281v-2.4219h0.64062c0.69531 0 1.1758-0.15625 1.4375-0.46875 0.25781-0.3125 0.39062-0.93359 0.39062-1.8594zm0-4.4688h3.6875v3h-3.6875z"/>
  </symbol>
 </defs>
 <g>
  <path d="m83.332 547.37h-2.8047c-1.1641 0-2.1055 0.94141-2.1055 2.1055 0 1.1641 0.94141 2.1055 2.1055 2.1055h2.8047c1.1641 0 2.1055-0.94141 2.1055-2.1055 0-1.1641-0.94141-2.1055-2.1055-2.1055z"/>
  <path d="m577.37 547.37h-4.2109c-1.1641 0-2.1055 0.94141-2.1055 2.1055 0 1.1641 0.94141 2.1055 2.1055 2.1055h4.2109c1.1641 0 2.1055-0.94141 2.1055-2.1055 0-1.1641-0.94141-2.1055-2.1055-2.1055z"/>
  <path d="m280.02 525.43h83.266c1.1641 0 2.1055-0.94141 2.1055-2.1055 0-1.1641-0.94141-2.1055-2.1055-2.1055l-83.266 0.003906c-1.1641 0-2.1055 0.94141-2.1055 2.1055 0 1.1602 0.94141 2.1016 2.1055 2.1016z"/>
  <path d="m322.03 441.61c-6.0078 0-10.891 4.8867-10.891 10.891 0 6.0078 4.8867 10.891 10.891 10.891 6.0078 0 10.891-4.8867 10.891-10.891 0-6.0078-4.8828-10.891-10.891-10.891zm0 17.574c-3.6836 0-6.6836-2.9961-6.6836-6.6836 0-3.6836 2.9961-6.6836 6.6836-6.6836 3.6836 0 6.6836 2.9961 6.6836 6.6836-0.003907 3.6836-3 6.6836-6.6836 6.6836z"/>
  <path d="m125.7 147.78c5.1367 0 9.3164-4.1836 9.3164-9.3164 0-5.1367-4.1836-9.3164-9.3164-9.3164-5.1367 0-9.3164 4.1836-9.3164 9.3164 0 5.1328 4.1797 9.3164 9.3164 9.3164zm0-14.426c2.8164 0 5.1055 2.2891 5.1055 5.1055 0 2.8164-2.2891 5.1055-5.1055 5.1055-2.8164 0-5.1055-2.2891-5.1055-5.1055 0-2.8164 2.2891-5.1055 5.1055-5.1055z"/>
  <path d="m155.75 147.78c5.1367 0 9.3164-4.1836 9.3164-9.3164 0-5.1367-4.1836-9.3164-9.3164-9.3164-5.1367 0-9.3164 4.1836-9.3164 9.3164-0.003907 5.1328 4.1797 9.3164 9.3164 9.3164zm0-14.426c2.8164 0 5.1055 2.2891 5.1055 5.1055 0 2.8164-2.2891 5.1055-5.1055 5.1055s-5.1055-2.2891-5.1055-5.1055c-0.003906-2.8164 2.2852-5.1055 5.1055-5.1055z"/>
  <path d="m185.79 147.78c5.1367 0 9.3164-4.1836 9.3164-9.3164 0-5.1367-4.1797-9.3203-9.3164-9.3203-5.1367 0-9.3164 4.1836-9.3164 9.3164 0 5.1367 4.1797 9.3203 9.3164 9.3203zm0-14.426c2.8164 0 5.1055 2.2891 5.1055 5.1055 0 2.8164-2.2891 5.1094-5.1055 5.1094-2.8164 0-5.1055-2.2891-5.1055-5.1055 0-2.8203 2.2891-5.1094 5.1055-5.1094z"/>
  <path d="m591.41 134.37h0.13672 0.003906c7.1641-0.082032 12.941-5.9805 12.879-13.141-0.074219-7.1602-6.0195-12.785-13.133-12.867-3.4648 0.03125-6.7148 1.418-9.1484 3.8945-2.4375 2.4844-3.7617 5.7578-3.7266 9.2188 0.027343 3.4727 1.4102 6.7305 3.8984 9.168 2.4492 2.4062 5.6719 3.7266 9.0898 3.7266zm-6.2617-19.16c1.6484-1.6758 3.8438-2.6133 6.1875-2.6367h0.078125c4.8125 0 8.7539 3.8867 8.8047 8.6953 0.042968 4.8438-3.8633 8.832-8.7148 8.8906-2.1602 0.058594-4.5547-0.86719-6.2383-2.5195-1.6836-1.6484-2.6133-3.8477-2.6367-6.1992-0.023438-2.3438 0.875-4.5547 2.5195-6.2305z"/>
  <path d="m609.49 95.66-136.54-84.688c-0.023438-0.015625-0.046875-0.027344-0.066407-0.042968l-1.0859-0.67578c-0.14844-0.089844-0.3125-0.12109-0.47266-0.17188-2.0156-1.0273-4.2617-1.6602-6.6719-1.6602-8.1719 0-14.82 6.6484-14.82 14.82v75.492h-347.32c-13.273 0-24.07 10.797-24.07 24.066v330.35c0 13.273 10.797 24.07 24.07 24.07h170.71c-0.53125 22.539-9.4844 43.664-25.484 59.668l-10.48 10.48h-132.87c-1.1641 0-2.1055 0.94141-2.1055 2.1055 0 1.1641 0.94141 2.1055 2.1055 2.1055h447.72c1.1641 0 2.1055-0.94141 2.1055-2.1055 0-1.1641-0.94141-2.1055-2.1055-2.1055h-145.43l-10.48-10.48c-16-16-24.953-37.125-25.484-59.668h170.71c13.273 0 24.07-10.797 24.07-24.07v-23.281c1.7578 1.3164 3.918 2.1289 6.2773 2.1289h39.285c5.8047 0 10.527-4.7188 10.527-10.527v-304.06c0-8.9102-4.5195-17.039-12.09-21.746zm-35.988 13.633-2.1992-3.9062c-0.1875-0.33594-0.13672-0.75 0.13672-1.0273l2.9453-3.0156c0.26953-0.28125 0.69141-0.34375 1.0391-0.16016l3.9492 2.1211c0.62891 0.34375 1.4062 0.33203 2.0312-0.019532 1.3242-0.75391 2.6914-1.3398 4.1914-1.8008 0.67578-0.20703 1.1992-0.73828 1.4023-1.4219l1.2539-4.332c0.10547-0.375 0.44141-0.625 0.83203-0.62891l4.2109-0.035156h0.007812c0.38281 0 0.71484 0.24609 0.82812 0.62109l1.3047 4.2891c0.18359 0.60938 0.63672 1.1016 1.2305 1.3398l4.6602 1.875c0.58984 0.23828 1.2578 0.19141 1.8125-0.11328l3.9219-2.1953c0.33984-0.18359 0.75781-0.13672 1.0352 0.14063l2.9961 2.9531c0.27734 0.26953 0.33594 0.69531 0.16016 1.0273l-2.1172 3.957c-0.33984 0.63672-0.33203 1.4062 0.023438 2.0352 0.53906 0.94531 1 1.9453 1.3594 2.9336 0.14453 0.41406 0.28906 0.82812 0.41797 1.2656 0.20703 0.6875 0.75 1.2227 1.4375 1.4141l4.3281 1.2344c0.375 0.10547 0.62891 0.44141 0.63281 0.82812l0.035157 4.207c0.003906 0.38672-0.24219 0.72266-0.61719 0.83594l-4.4727 1.3828c-0.61719 0.24609-1.082 0.76953-1.2539 1.4141-0.09375 0.34766-0.20703 0.70703-0.32422 1.0469-0.375 1.0781-0.83203 2.1328-1.3633 3.1406-0.33203 0.62891-0.32422 1.3906 0.023437 2.0117l2.1953 3.918c0.18359 0.33203 0.13281 0.75391-0.13672 1.0234l-2.957 3.0273c-0.26172 0.27734-0.6875 0.35547-1.0312 0.16016l-3.9766-2.125c-0.63281-0.33594-1.3984-0.32812-2.0312 0.027344-1.3281 0.75391-2.7305 1.3477-4.1602 1.7695-0.69531 0.20312-1.2344 0.75-1.4297 1.4414l-1.2344 4.3281c-0.10547 0.375-0.44141 0.62891-0.82812 0.63281-0.54688 0.003907 0.035157 0-4.2266 0.035157-0.37891 0-0.71484-0.25-0.82812-0.61328l-1.3125-4.293c-0.21094-0.68359-0.75391-1.2148-1.4375-1.4102-1.4883-0.41797-2.9062-0.99609-4.2109-1.707-0.31641-0.16797-0.66016-0.25391-1.0078-0.25391-0.35547 0-0.70312 0.089844-1.0234 0.26562l-3.9336 2.1914c-0.33203 0.19141-0.75391 0.13672-1.0273-0.14062l-2.9961-2.9492c-0.27734-0.26562-0.33594-0.69531-0.16016-1.0273l2.1172-3.9531c0.33984-0.63672 0.33203-1.4062-0.023437-2.0352-0.74609-1.3125-1.3516-2.7266-1.8047-4.1992-0.20703-0.68359-0.74609-1.2148-1.4297-1.4062l-4.3203-1.2383c-0.36719-0.10547-0.625-0.44531-0.62891-0.82813l-0.046875-4.2148c-0.003906-0.38281 0.24609-0.72266 0.61328-0.83594l4.3047-1.3203c0.69141-0.21484 1.2266-0.76562 1.4141-1.4609 0.37891-1.3867 0.94141-2.7578 1.7188-4.207 0.33984-0.62109 0.33203-1.3906-0.019531-2.0195zm43.48 4.2461-2.3828-0.67969c-0.035156-0.11328-0.078125-0.23047-0.12109-0.34766-0.32031-0.87109-0.69141-1.7305-1.1094-2.5625l1.4414-2.6953c1.0508 1.9492 1.7695 4.0703 2.1719 6.2852zm-19.449-20.34 6.9297 4.3008-2.5117 1.4102-2.7891-1.1211-1.0117-3.3242c-0.13672-0.46484-0.36328-0.875-0.61719-1.2656zm-32.043 270.02h51.879v18.82h-51.879zm0-39.676c0.13281-3.3672 2.8906-6.0703 6.293-6.0703h39.27c3.4844 0 6.3164 2.832 6.3164 6.3164v12.504h-51.879zm45.562-10.281h-39.285c-2.3633 0-4.5195 0.80859-6.2773 2.1289v-187.01l2.7422 0.78906c0.35938 0.99609 0.77344 1.9648 1.2461 2.9023l-1.5859 2.9609c-1.0508 1.9727-0.67578 4.4492 0.92188 6.0156l2.9922 2.9453c1.5938 1.5742 4.0703 1.9062 6.0312 0.81641l2.9531-1.6406c0.9375 0.45312 1.9062 0.84766 2.9141 1.1797l0.98828 3.2266c0.64844 2.1211 2.6406 3.5898 4.8516 3.5898h0.046875l4.2188-0.035156c2.2344-0.019531 4.2227-1.5391 4.8359-3.6914l0.92578-3.2461c0.98828-0.34375 1.9531-0.75781 2.8945-1.2305l2.9844 1.5938c1.9766 1.0508 4.4531 0.67187 6.0234-0.93359l2.957-3.0273c1.5664-1.5977 1.8906-4.082 0.79687-6.0273l-1.6484-2.9453c0.41406-0.87109 0.78516-1.7734 1.1016-2.6836 0.019531-0.070312 0.046874-0.14062 0.070312-0.21094l2.6172-0.79687v187.48c-1.7617-1.3359-3.9336-2.1562-6.3164-2.1562zm-146.4-300.62c2.1445 0 4.1406 0.65234 5.8125 1.75l0.16406 0.10156c2.793 1.9102 4.6328 5.1211 4.6328 8.7539 0 5.8516-4.7617 10.613-10.613 10.613-5.8516 0-10.609-4.7617-10.609-10.613 0.003907-5.8477 4.7617-10.605 10.613-10.605zm-10.609 20.922c2.6953 2.7734 6.4453 4.5117 10.609 4.5117 8.1758 0 14.824-6.6484 14.824-14.824 0-1.2383-0.19531-2.4219-0.48437-3.5703l114.92 71.281c-0.20703-0.027344-0.40234-0.10156-0.61719-0.10156h-0.046875l-4.2148 0.035157c-2.2344 0.019531-4.2227 1.5352-4.8359 3.6797l-0.94141 3.2578c-1.0039 0.35547-1.957 0.76562-2.8906 1.2383l-2.9531-1.5859c-1.9844-1.0664-4.4688-0.6875-6.043 0.92578l-2.9453 3.0156c-1.5703 1.6055-1.8945 4.0859-0.79297 6.0391l1.6445 2.9141c-0.48047 0.98438-0.875 1.9492-1.1992 2.918l-3.2305 0.99219c-0.28906 0.089844-0.53125 0.26172-0.79688 0.39453-3.3438-9.2773-12.211-15.941-22.629-15.941h-87.379zm-351.54 69.391h347.32v17.754h-347.32c-1.1641 0-2.1055 0.94141-2.1055 2.1055v284.74c0 1.1641 0.94141 2.1055 2.1055 2.1055h438.91c1.1641 0 2.1055-0.94141 2.1055-2.1055v-284.74c0-1.1641-0.94141-2.1055-2.1055-2.1055h-87.371v-17.754h87.375c10.949 0 19.859 8.9062 19.859 19.855v304.98h-478.63v-304.98c0-10.949 8.9102-19.855 19.859-19.855zm2.1055 53.316h345.22v14.77h-12.727c-1.1641 0-2.1055 0.94141-2.1055 2.1055 0 1.1641 0.94141 2.1055 2.1055 2.1055h25.152c1.1641 0 2.1055-0.94141 2.1055-2.1055 0-1.1641-0.94141-2.1055-2.1055-2.1055h-8.2148v-14.77h85.266v249.17l-434.7 0.003906zm434.7-4.2109h-85.266v-11.469h59.473c1.1641 0 2.1055-0.94141 2.1055-2.1055 0-1.1641-0.94141-2.1055-2.1055-2.1055h-59.473v-11.465h85.266zm-89.477-15.676h-84.395c-1.1641 0-2.1055 0.94141-2.1055 2.1055 0 1.1641 0.94141 2.1055 2.1055 2.1055h84.395v11.469l-345.22-0.003907v-27.141h345.22zm-56.617 403.49 7.5039 7.5039h-157.51l7.5039-7.5039c16.801-16.801 26.266-38.977 26.797-62.645h88.91c0.53125 23.672 9.9961 45.848 26.797 62.645zm148.2-66.852h-438.91c-10.949 0-19.859-8.9102-19.859-19.859v-21.156h478.63v21.156c0 10.945-8.9102 19.859-19.859 19.859zm75.949-51.543c0 3.4844-2.832 6.3164-6.3164 6.3164h-39.273c-3.3984 0-6.1602-2.7031-6.293-6.0703v-12.754h51.883zm0-16.719h-51.879v-18.504h51.879zm0-45.746h-51.879v-18.508h51.879z"/>
  <path d="m221.83 299.17h-70.023c-6.1172 0-11.094 4.9766-11.094 11.094v70.023c0 6.1172 4.9766 11.094 11.094 11.094h70.023c6.1172 0 11.094-4.9766 11.094-11.094v-70.023c0-6.1172-4.9727-11.094-11.094-11.094zm6.8867 81.121c0 3.7969-3.0898 6.8828-6.8828 6.8828h-70.027c-3.7969 0-6.8828-3.0898-6.8828-6.8828v-70.027c0-3.7969 3.0898-6.8828 6.8828-6.8828h70.023c3.7969 0 6.8828 3.0898 6.8828 6.8828z"/>
  <path d="m350.6 299.17h-70.027c-6.1172 0-11.094 4.9766-11.094 11.094v70.023c0 6.1172 4.9766 11.094 11.094 11.094h70.023c6.1172 0 11.094-4.9766 11.094-11.094l0.003906-70.023c0-6.1172-4.9766-11.094-11.094-11.094zm6.8828 81.121c0 3.7969-3.0898 6.8828-6.8828 6.8828h-70.027c-3.7969 0-6.8828-3.0898-6.8828-6.8828v-70.027c0-3.7969 3.0898-6.8828 6.8828-6.8828h70.023c3.7969 0 6.8828 3.0898 6.8828 6.8828z"/>
  <path d="m478.74 299.17h-70.023c-6.1172 0-11.094 4.9766-11.094 11.094v70.023c0 6.1172 4.9766 11.094 11.094 11.094h70.023c6.1172 0 11.094-4.9766 11.094-11.094v-70.023c0-6.1172-4.9766-11.094-11.094-11.094zm6.8828 81.121c0 3.7969-3.0898 6.8828-6.8828 6.8828h-70.023c-3.7969 0-6.8828-3.0898-6.8828-6.8828l-0.003906-70.027c0-3.7969 3.0898-6.8828 6.8828-6.8828h70.023c3.7969 0 6.8828 3.0898 6.8828 6.8828z"/>
  <path d="m497.33 262.73c-1.4883 1.9844-3.7617 3.125-6.2422 3.125h-1.3516v-69.449c0-6.625-5.3867-12.012-12.008-12.012h-319.43v-1.3477c0-2.6523 1.3242-5.0938 3.543-6.5391 0.97266-0.63281 1.25-1.9375 0.61719-2.9102-0.63672-0.98047-1.9414-1.2461-2.9102-0.61719-3.4219 2.2188-5.4609 5.9844-5.4609 10.066v1.3477h-1.3516c-6.6211 0-12.008 5.3867-12.008 12.012v75.012c0 6.6211 5.3867 12.008 12.008 12.008h324.99c6.6211 0 12.008-5.3867 12.008-12.008v-1.3516h1.3516c3.7617 0 7.3555-1.7969 9.6133-4.8125 0.69531-0.92969 0.50391-2.25-0.42188-2.9492-0.92578-0.69141-2.2461-0.50391-2.9492 0.42578zm-11.805 8.6875c0 4.2969-3.5 7.7969-7.7969 7.7969h-324.99c-4.2969 0-7.7969-3.5-7.7969-7.7969v-75.012c0-4.3008 3.5-7.8008 7.7969-7.8008h324.99c4.2969 0 7.7969 3.5 7.7969 7.8008z"/>
  <path d="m500.99 212c-1.1641 0-2.1055 0.94141-2.1055 2.1055v25.152c0 1.1641 0.94141 2.1055 2.1055 2.1055 1.1641 0 2.1055-0.94141 2.1055-2.1055v-25.152c0-1.1641-0.94141-2.1055-2.1055-2.1055z"/>
  <path d="m491.09 171.03h-3.6797c-1.1641 0-2.1055 0.94141-2.1055 2.1055 0 1.1641 0.94141 2.1055 2.1055 2.1055h3.6797c4.2969 0 7.7969 3.5 7.7969 7.8008v5.9141c0 1.1641 0.94141 2.1055 2.1055 2.1055 1.1641 0 2.1055-0.94141 2.1055-2.1055v-5.9141c0-6.625-5.3867-12.012-12.008-12.012z"/>
  <path d="m185.58 175.24h25.152c1.1641 0 2.1055-0.94141 2.1055-2.1055 0-1.1641-0.94141-2.1055-2.1055-2.1055h-25.152c-1.1641 0-2.1055 0.94141-2.1055 2.1055 0.003907 1.1641 0.94531 2.1055 2.1055 2.1055z"/>
  <path d="m286.19 175.24h25.152c1.1641 0 2.1055-0.94141 2.1055-2.1055 0-1.1641-0.94141-2.1055-2.1055-2.1055h-25.152c-1.1641 0-2.1055 0.94141-2.1055 2.1055 0 1.1641 0.94141 2.1055 2.1055 2.1055z"/>
  <path d="m235.89 175.24h25.152c1.1641 0 2.1055-0.94141 2.1055-2.1055 0-1.1641-0.94141-2.1055-2.1055-2.1055h-25.152c-1.1641 0-2.1055 0.94141-2.1055 2.1055 0 1.1641 0.94141 2.1055 2.1055 2.1055z"/>
  <path d="m386.8 175.24h25.152c1.1641 0 2.1055-0.94141 2.1055-2.1055 0-1.1641-0.94141-2.1055-2.1055-2.1055h-25.152c-1.1641 0-2.1055 0.94141-2.1055 2.1055 0 1.1641 0.94141 2.1055 2.1055 2.1055z"/>
  <path d="m336.5 175.24h25.152c1.1641 0 2.1055-0.94141 2.1055-2.1055 0-1.1641-0.94141-2.1055-2.1055-2.1055h-25.152c-1.1641 0-2.1055 0.94141-2.1055 2.1055 0 1.1641 0.94141 2.1055 2.1055 2.1055z"/>
  <path d="m416.35 223.45c-1.1641 0-2.1055 0.94141-2.1055 2.1055 0 1.1641 0.94141 2.1055 2.1055 2.1055h21.734c1.1641 0 2.1055-0.94141 2.1055-2.1055 0-1.1641-0.94141-2.1055-2.1055-2.1055z"/>
  <path d="m187.78 209.85h95.535c1.1641 0 2.1055-0.94141 2.1055-2.1055 0-1.1641-0.94141-2.1055-2.1055-2.1055h-95.535c-1.1641 0-2.1055 0.94141-2.1055 2.1055 0 1.1641 0.94141 2.1055 2.1055 2.1055z"/>
  <path d="m187.78 227.66h213.33c1.1641 0 2.1055-0.94141 2.1055-2.1055 0-1.1641-0.94141-2.1055-2.1055-2.1055h-213.33c-1.1641 0-2.1055 0.94141-2.1055 2.1055 0 1.1641 0.94141 2.1055 2.1055 2.1055z"/>
  <path d="m472.14 241.27h-42.16c-1.1641 0-2.1055 0.94141-2.1055 2.1055s0.94141 2.1055 2.1055 2.1055h42.164c1.1641 0 2.1055-0.94141 2.1055-2.1055-0.003906-1.1641-0.94531-2.1055-2.1094-2.1055z"/>
  <path d="m472.14 257.96h-174.07c-1.1641 0-2.1055 0.94141-2.1055 2.1055 0 1.1641 0.94141 2.1055 2.1055 2.1055h174.07c1.1641 0 2.1055-0.94141 2.1055-2.1055 0-1.1641-0.94141-2.1055-2.1055-2.1055z"/>
  <path d="m365.54 241.27c-1.1641 0-2.1055 0.94141-2.1055 2.1055s0.94141 2.1055 2.1055 2.1055h42.375c1.1641 0 2.1055-0.94141 2.1055-2.1055s-0.94141-2.1055-2.1055-2.1055z"/>
  <path d="m187.78 245.48h155.11c1.1641 0 2.1055-0.94141 2.1055-2.1055s-0.94141-2.1055-2.1055-2.1055h-155.11c-1.1641 0-2.1055 0.94141-2.1055 2.1055s0.94141 2.1055 2.1055 2.1055z"/>
  <path d="m280.55 257.96h-92.773c-1.1641 0-2.1055 0.94141-2.1055 2.1055 0 1.1641 0.94141 2.1055 2.1055 2.1055h92.777c1.1641 0 2.1055-0.94141 2.1055-2.1055-0.003906-1.1641-0.94531-2.1055-2.1094-2.1055z"/>
  <path d="m303.26 209.85h159.72c1.1641 0 2.1055-0.94141 2.1055-2.1055 0-1.1641-0.94141-2.1055-2.1055-2.1055h-159.72c-1.1641 0-2.1055 0.94141-2.1055 2.1055 0 1.1641 0.94141 2.1055 2.1055 2.1055z"/>
 </g>
</svg>
